<svg height="480pt" viewBox="0 0 480 480" width="480pt" xmlns="http://www.w3.org/2000/svg"><path d="m248 287.398438v-24.796876c27.542969-3.976562 47.988281-27.574218 48-55.402343v-24h-8c-15.066406 0-29.492188 6.085937-40 16.878906v-45.597656l8.96875-8.96875c15.59375-15.632813 15.59375-40.9375 0-56.566407l-16.96875-16.945312-16.96875 16.96875c-15.59375 15.632812-15.59375 40.933594 0 56.566406l8.96875 8.976563v21.601562c-10.503906-10.808593-24.929688-16.90625-40-16.914062h-8v24c.03125 27.8125 20.472656 51.386719 48 55.359375v48.800781c-32.984375 1.519531-64 12.359375-64 31.800781v128.039063c0 21.007812 36.214844 32 72 32s72-10.992188 72-32v-128c0-19.4375-31.015625-30.277344-64-31.800781zm32-87.398438v7.199219c-.019531 19.003906-13.386719 35.375-32 39.199219v-7.199219c.019531-19 13.386719-35.375 32-39.199219zm-45.65625-99.710938 5.65625-5.65625 5.65625 5.65625c9.351562 9.382813 9.351562 24.5625 0 33.941407l-5.65625 5.65625-5.65625-5.65625c-9.351562-9.378907-9.351562-24.558594 0-33.941407zm-34.34375 82.910157v-7.199219c18.613281 3.824219 31.980469 20.199219 32 39.199219v7.199219c-18.613281-3.824219-31.980469-20.195313-32-39.199219zm40 280c-36.375 0-56-11.351563-56-16v-11.199219c17.574219 7.941406 36.726562 11.773438 56 11.199219 19.273438.574219 38.425781-3.257813 56-11.199219v11.199219c0 4.648437-19.625 16-56 16zm0-32c-36.375 0-56-11.351563-56-16v-11.199219c17.574219 7.941406 36.726562 11.773438 56 11.199219 19.273438.574219 38.425781-3.257813 56-11.199219v11.199219c0 4.648437-19.625 16-56 16zm0-32c-36.375 0-56-11.351563-56-16v-11.199219c17.574219 7.941406 36.726562 11.773438 56 11.199219 19.273438.574219 38.425781-3.257813 56-11.199219v11.199219c0 4.648437-19.625 16-56 16zm0-32c-36.375 0-56-11.351563-56-16v-11.199219c17.574219 7.941406 36.726562 11.773438 56 11.199219 19.273438.574219 38.425781-3.257813 56-11.199219v11.199219c0 4.648437-19.625 16-56 16zm0-32c-36.375 0-56-11.351563-56-16 0-4.289063 16.800781-14.289063 48-15.792969v15.792969h16v-15.792969c31.199219 1.503906 48 11.503906 48 15.792969 0 4.648437-19.625 16-56 16zm0 0"/><path d="m416 223.398438v-48.796876c27.542969-3.976562 47.988281-27.574218 48-55.402343v-24h-8c-15.066406 0-29.492188 6.085937-40 16.878906v-13.597656l8.96875-8.96875c15.597656-15.601563 15.597656-56.96875 0-72.566407l-16.96875-16.945312-16.96875 16.976562c-15.597656 15.597657-15.597656 56.96875 0 72.566407l8.96875 8.96875v45.601562c-10.503906-10.808593-24.929688-16.90625-40-16.914062h-8v24c.03125 27.8125 20.472656 51.386719 48 55.359375v16.800781c-32.984375 1.519531-64 12.359375-64 31.800781v192.039063c0 21.007812 36.214844 32 72 32s72-10.992188 72-32v-192c0-19.4375-31.015625-30.277344-64-31.800781zm32-111.398438v7.199219c-.019531 19.003906-13.386719 35.375-32 39.199219v-7.199219c.019531-19 13.386719-35.375 32-39.199219zm-45.65625-83.710938 5.65625-5.65625 5.65625 5.65625c9.335938 9.335938 9.335938 40.605469 0 49.941407l-5.65625 5.65625-5.65625-5.65625c-9.335938-9.335938-9.335938-40.628907 0-49.941407zm-34.34375 122.910157v-7.199219c18.613281 3.824219 31.980469 20.199219 32 39.199219v7.199219c-18.613281-3.824219-31.980469-20.195313-32-39.199219zm32 88.207031v15.792969h16v-15.792969c31.199219 1.503906 48 11.503906 48 15.792969 0 4.648437-19.625 16-56 16s-56-11.351563-56-16c0-4.289063 16.800781-14.289063 48-15.792969zm8 223.792969c-36.375 0-56-11.351563-56-16v-11.199219c17.574219 7.941406 36.726562 11.773438 56 11.199219 19.273438.574219 38.425781-3.257813 56-11.199219v11.199219c0 4.648437-19.625 16-56 16zm0-32c-36.375 0-56-11.351563-56-16v-11.199219c17.574219 7.941406 36.726562 11.773438 56 11.199219 19.273438.574219 38.425781-3.257813 56-11.199219v11.199219c0 4.648437-19.625 16-56 16zm0-32c-36.375 0-56-11.351563-56-16v-11.199219c17.574219 7.941406 36.726562 11.773438 56 11.199219 19.273438.574219 38.425781-3.257813 56-11.199219v11.199219c0 4.648437-19.625 16-56 16zm0-32c-36.375 0-56-11.351563-56-16v-11.199219c17.574219 7.941406 36.726562 11.773438 56 11.199219 19.273438.574219 38.425781-3.257813 56-11.199219v11.199219c0 4.648437-19.625 16-56 16zm0-32c-36.375 0-56-11.351563-56-16v-11.199219c17.574219 7.941406 36.726562 11.773438 56 11.199219 19.273438.574219 38.425781-3.257813 56-11.199219v11.199219c0 4.648437-19.625 16-56 16zm0-32c-36.375 0-56-11.351563-56-16v-11.199219c17.574219 7.941406 36.726562 11.773438 56 11.199219 19.273438.574219 38.425781-3.257813 56-11.199219v11.199219c0 4.648437-19.625 16-56 16zm0 0"/><path d="m80 319.398438v-8.796876c27.542969-3.976562 47.988281-27.574218 48-55.402343v-24h-8c-15.066406 0-29.492188 6.085937-40 16.878906v-45.597656l8.96875-8.96875c15.59375-15.632813 15.59375-40.9375 0-56.566407l-16.96875-16.945312-16.96875 16.976562c-15.59375 15.632813-15.59375 40.9375 0 56.566407l8.96875 8.96875v21.601562c-10.503906-10.808593-24.929688-16.90625-40-16.914062h-8v24c.03125 27.8125 20.472656 51.386719 48 55.359375v32.800781c-32.984375 1.5625-64 12.402344-64 31.839844v96c0 21.007812 36.214844 32 72 32s72-10.992188 72-32v-96c0-19.4375-31.015625-30.277344-64-31.800781zm32-71.398438v7.199219c-.019531 19.003906-13.386719 35.375-32 39.199219v-7.199219c.019531-19 13.386719-35.375 32-39.199219zm-45.65625-99.710938 5.65625-5.65625 5.65625 5.65625c9.351562 9.382813 9.351562 24.5625 0 33.941407l-5.65625 5.65625-5.65625-5.65625c-9.351562-9.378907-9.351562-24.558594 0-33.941407zm-34.34375 82.910157v-7.199219c18.613281 3.824219 31.980469 20.199219 32 39.199219v7.199219c-18.613281-3.824219-31.980469-20.195313-32-39.199219zm40 232c-36.375 0-56-11.351563-56-16v-11.199219c17.574219 7.941406 36.726562 11.773438 56 11.199219 19.273438.574219 38.425781-3.257813 56-11.199219v11.199219c0 4.648437-19.625 16-56 16zm0-32c-36.375 0-56-11.351563-56-16v-11.199219c17.574219 7.941406 36.726562 11.773438 56 11.199219 19.273438.574219 38.425781-3.257813 56-11.199219v11.199219c0 4.648437-19.625 16-56 16zm0-32c-36.375 0-56-11.351563-56-16v-11.199219c17.574219 7.941406 36.726562 11.773438 56 11.199219 19.273438.574219 38.425781-3.257813 56-11.199219v11.199219c0 4.648437-19.625 16-56 16zm0-32c-36.375 0-56-11.351563-56-16 0-4.289063 16.800781-14.289063 48-15.792969v15.792969h16v-15.792969c31.199219 1.503906 48 11.503906 48 15.792969 0 4.648437-19.625 16-56 16zm0 0"/></svg>