<svg height="482pt" viewBox="-41 0 482 482.544" width="482pt" xmlns="http://www.w3.org/2000/svg"><path d="m388.3125 65.601562c-58.445312.054688-115.59375-17.246093-164.191406-49.714843l-23.847656-15.886719-23.558594 15.71875c-48.324219 32.351562-105.128906 49.703125-163.28125 49.882812l-13.160156.039063v173.558594c-.27734425 87.945312 49.457031 168.40625 128.246093 207.472656l71.753907 35.871094 71.75-35.871094c78.792968-39.066406 128.527343-119.527344 128.25-207.472656v-173.597657zm-4.039062 173.597657c.277343 81.894531-46.03125 156.824219-119.398438 193.199219l-64.601562 32.257812-64.601563-32.296875c-73.355469-36.371094-119.660156-111.28125-119.398437-193.160156v-157.597657c60.347656-.730468 119.179687-18.996093 169.328124-52.578124l14.671876-9.824219 14.976562 10c50.078125 33.464843 108.796875 51.671875 169.023438 52.402343zm0 0"/><path d="m136.273438 145.601562v32c-22.082032.023438-39.972657 17.917969-40 40v128c.027343 22.078126 17.917968 39.972657 40 40h128c22.082031-.027343 39.972656-17.921874 40-40v-128c-.027344-22.082031-17.917969-39.976562-40-40v-32c0-35.347656-28.652344-64-64-64-35.347657 0-64 28.652344-64 64zm152 72v128c0 13.253907-10.746094 24-24 24h-128c-13.253907 0-24-10.746093-24-24v-128c0-13.257812 10.746093-24 24-24h128c13.253906 0 24 10.742188 24 24zm-40-72v32h-96v-32c0-26.511718 21.488281-48 48-48 26.507812 0 48 21.488282 48 48zm0 0"/><path d="m200.273438 321.601562c-8.835938 0-16-7.164062-16-16h-16c.054687 14.546876 9.914062 27.226563 24 30.863282v17.136718h16v-17.136718c15.585937-4.011719 25.75-18.996094 23.71875-34.960938s-15.625-27.925781-31.71875-27.902344c-8.835938 0-16-7.164062-16-16 0-8.839843 7.164062-16 16-16 8.835937 0 16 7.160157 16 16h16c-.054688-14.550781-9.914063-27.230468-24-30.867187v-17.132813h-16v17.132813c-15.585938 4.011719-25.753907 18.996094-23.71875 34.960937 2.03125 15.964844 15.625 27.925782 31.71875 27.90625 8.835937 0 16 7.160157 16 16 0 8.835938-7.164063 16-16 16zm0 0"/></svg>